<?xml version="1.0" encoding="utf-8"?><svg xml:space="preserve" viewBox="0 0 100 100" y="0" x="0" xmlns="http://www.w3.org/2000/svg" id="Layer_1" version="1.1" width="266px" height="266px" xmlns:xlink="http://www.w3.org/1999/xlink" style="width:100%;height:100%;background-size:initial;background-repeat-y:initial;background-repeat-x:initial;background-position-y:initial;background-position-x:initial;background-origin:initial;background-color:initial;background-clip:initial;background-attachment:initial;animation-play-state:paused" ><g class="ldl-scale" style="transform-origin:50% 50%;transform:rotate(0deg) scale(0.8, 0.8);animation-play-state:paused" ><path d="M23.034 11h53.933v78H23.034z" stroke-miterlimit="10" stroke-width="3.5" stroke-linejoin="round" stroke="#333" fill="#fff" style="stroke:rgb(51, 51, 51);fill:rgb(255, 255, 255);animation-play-state:paused" ></path>
<g style="animation-play-state:paused" ><path fill="#333" d="M38.864 27.853h-2.562l-3.788-6.651v6.651h-2.577V17.165h2.577l3.781 6.651v-6.651h2.569v10.688z" style="fill:rgb(51, 51, 51);animation-play-state:paused" ></path>
<path fill="#333" d="M47.122 23.317H43.07v2.555h4.786v1.982h-7.363V17.165h7.378v1.989H43.07v2.254h4.052v1.909z" style="fill:rgb(51, 51, 51);animation-play-state:paused" ></path>
<path fill="#333" d="M57.187 23.867l1.226-6.702h2.555L58.7 27.853h-2.672l-1.431-6.093-1.402 6.093H50.53l-2.276-10.688h2.562l1.226 6.702 1.468-6.702h2.188l1.489 6.702z" style="fill:rgb(51, 51, 51);animation-play-state:paused" ></path>
<path fill="#333" d="M67.486 25.012c0-.377-.133-.67-.4-.881s-.735-.428-1.406-.653a13.516 13.516 0 0 1-1.644-.653c-1.385-.68-2.077-1.615-2.077-2.804 0-.592.173-1.115.518-1.567s.833-.805 1.465-1.057c.631-.252 1.341-.378 2.129-.378.768 0 1.457.137 2.066.411s1.083.664 1.42 1.171c.338.507.507 1.085.507 1.736h-2.569c0-.436-.133-.773-.4-1.013-.267-.24-.628-.36-1.083-.36-.46 0-.823.102-1.09.305-.267.203-.4.461-.4.774 0 .274.147.522.44.745.294.223.81.453 1.549.69s1.346.493 1.821.767c1.155.666 1.732 1.583 1.732 2.753 0 .935-.352 1.669-1.057 2.202-.705.533-1.671.8-2.9.8-.866 0-1.65-.155-2.353-.466-.702-.311-1.231-.737-1.586-1.277s-.532-1.164-.532-1.868h2.584c0 .573.148.995.444 1.266s.777.407 1.442.407c.426 0 .762-.092 1.009-.275.247-.184.371-.442.371-.775z" style="fill:rgb(51, 51, 51);animation-play-state:paused" ></path></g>
<path d="M48 32h22v16H48z" fill="#77a4bd" style="fill:rgb(119, 164, 189);animation-play-state:paused" ></path>
<path d="M30 34h14" stroke-miterlimit="10" stroke-width="3.5" stroke="#333" fill="none" style="stroke:rgb(51, 51, 51);animation-play-state:paused" ></path>
<path d="M30 40h14" stroke-miterlimit="10" stroke-width="3.5" stroke="#333" fill="none" style="stroke:rgb(51, 51, 51);animation-play-state:paused" ></path>
<path d="M30 46h14" stroke-miterlimit="10" stroke-width="3.5" stroke="#333" fill="none" style="stroke:rgb(51, 51, 51);animation-play-state:paused" ></path>
<path d="M30 53h40" stroke-miterlimit="10" stroke-width="3.5" stroke="#333" fill="none" style="stroke:rgb(51, 51, 51);animation-play-state:paused" ></path>
<path d="M30 60h40" stroke-miterlimit="10" stroke-width="3.5" stroke="#333" fill="none" style="stroke:rgb(51, 51, 51);animation-play-state:paused" ></path>
<path d="M30 67h40" stroke-miterlimit="10" stroke-width="3.5" stroke="#333" fill="none" style="stroke:rgb(51, 51, 51);animation-play-state:paused" ></path>
<path d="M51 74h19" stroke-miterlimit="10" stroke-width="3.5" stroke="#333" fill="none" style="stroke:rgb(51, 51, 51);animation-play-state:paused" ></path>
<path d="M51 81h19" stroke-miterlimit="10" stroke-width="3.5" stroke="#333" fill="none" style="stroke:rgb(51, 51, 51);animation-play-state:paused" ></path>
<path d="M30 72h17v11H30z" fill="#849b87" style="fill:rgb(132, 155, 135);animation-play-state:paused" ></path>
<path d="M41.688 89h35.278V11h-9.279z" stroke-miterlimit="10" stroke-width="3.5" stroke="#000" stroke-linejoin="round" opacity=".2" style="animation-play-state:paused" ></path>
<metadata xmlns:d="https://loading.io/stock/" style="animation-play-state:paused" ><d:name style="animation-play-state:paused" >newspaper</d:name>


<d:tags style="animation-play-state:paused" >newspaper,journalism,journalist,mass media,news media,news report,reporter</d:tags>


<d:license style="animation-play-state:paused" >by</d:license>


<d:slug style="animation-play-state:paused" >q57qix</d:slug></metadata></g><!-- generated by https://loading.io/ --></svg>